<?xml version="1.0" standalone="no"?>
<!DOCTYPE svg PUBLIC "-//W3C//DTD SVG 20010904//EN"
 "http://www.w3.org/TR/2001/REC-SVG-20010904/DTD/svg10.dtd">
<svg version="1.0" xmlns="http://www.w3.org/2000/svg"
 width="1040.000000pt" height="1040.000000pt" viewBox="0 0 1040.000000 1040.000000"
 preserveAspectRatio="xMidYMid meet">
<metadata>
Created by potrace 1.15, written by Peter Selinger 2001-2017
</metadata>
<g transform="translate(0.000000,1040.000000) scale(0.100000,-0.100000)"
fill="#000000" stroke="none">
<path d="M4055 8880 c-98 -12 -116 -26 -70 -56 21 -14 50 -16 207 -12 265 7
1383 -30 1430 -47 7 -2 105 -9 217 -15 149 -7 222 -7 269 1 127 22 33 39 -443
78 -198 17 -497 37 -665 46 -310 15 -836 18 -945 5z"/>
<path d="M7965 8871 c-44 -7 -65 -17 -65 -31 0 -24 56 -33 250 -41 113 -4 273
-17 355 -29 313 -44 770 -132 978 -189 235 -64 420 -102 479 -99 l53 3 -81 32
c-223 88 -945 262 -1324 318 -262 39 -533 54 -645 36z"/>
<path d="M3873 8623 c4 -109 16 -328 27 -488 42 -612 78 -770 182 -809 92 -34
460 -77 779 -92 l156 -7 7 -81 c3 -44 11 -178 16 -296 18 -403 21 -455 31
-584 5 -71 13 -134 16 -139 4 -6 -3 -8 -18 -4 -82 23 -145 28 -184 15 -45 -15
-98 -78 -115 -136 -14 -50 -12 -130 4 -167 12 -27 10 -33 -12 -62 -13 -18 -30
-50 -38 -70 -18 -52 -18 -177 1 -212 13 -26 13 -30 -4 -45 -33 -30 -63 -115
-63 -176 0 -61 21 -113 68 -169 25 -30 26 -34 13 -58 -8 -16 -14 -55 -13 -97
0 -59 5 -81 30 -126 35 -65 141 -175 243 -251 l74 -55 -2 -190 c-2 -185 8
-312 30 -366 17 -42 76 -60 196 -60 115 -1 127 5 143 61 17 63 8 267 -14 289
-4 4 -16 -4 -27 -17 -16 -20 -19 -40 -19 -138 l0 -115 -32 7 c-131 28 -187
139 -188 373 l0 103 28 -19 c15 -11 122 -72 238 -136 236 -129 370 -186 438
-186 94 0 65 25 -136 115 -71 32 -206 101 -302 156 -475 266 -663 449 -628
606 l7 32 60 -45 c112 -85 180 -110 220 -80 18 13 17 14 -6 28 -13 9 -51 32
-84 53 -93 58 -209 160 -235 208 -29 51 -31 126 -5 177 10 19 19 37 21 39 2 2
33 -24 70 -58 77 -71 196 -134 240 -129 23 2 29 8 29 28 0 21 -11 30 -70 60
-139 69 -258 180 -270 251 -9 50 17 138 48 168 l24 22 202 -121 c110 -67 205
-120 211 -118 6 2 3 17 -8 38 -20 40 -95 98 -247 190 -149 89 -175 115 -175
171 0 50 27 115 58 143 43 37 172 3 391 -104 308 -151 524 -307 621 -450 81
-119 131 -241 203 -496 52 -182 202 -752 277 -1054 28 -113 63 -238 79 -278
l29 -74 -61 -28 c-87 -39 -325 -115 -434 -138 -85 -18 -93 -18 -97 -3 -3 9
-16 68 -30 131 -51 237 -156 502 -224 564 -40 36 -42 11 -6 -64 59 -123 168
-461 152 -474 -1 -2 -37 -17 -78 -34 -72 -30 -76 -26 -11 10 63 35 17 73 -52
44 -54 -22 -123 -72 -147 -106 -29 -41 -29 -94 1 -126 39 -41 117 -58 244 -51
205 11 435 68 685 171 192 80 280 153 280 233 0 68 -79 108 -168 84 -25 -6
-47 -10 -49 -7 -2 2 -26 89 -53 192 -154 600 -324 1216 -360 1307 -47 120
-123 251 -192 331 -54 62 -192 168 -330 255 l-93 59 -6 83 c-7 100 6 625 21
864 6 94 12 208 13 255 l2 85 50 2 c354 16 725 84 725 133 0 22 -79 19 -275
-9 -296 -43 -428 -52 -749 -52 -443 0 -703 21 -934 76 -114 28 -175 54 -196
88 -37 55 -84 288 -111 547 -9 85 -25 220 -35 300 -10 80 -24 190 -30 245 -11
94 -53 255 -67 255 -3 0 -3 -89 0 -197z m1557 -1485 c0 -18 -7 -114 -15 -213
-8 -99 -18 -350 -22 -557 -3 -208 -7 -378 -8 -378 -4 0 -180 83 -184 87 -17
14 -64 607 -65 819 -1 196 0 213 18 233 27 30 67 39 179 40 l97 1 0 -32z
m1198 -3393 c3 -3 -25 -5 -61 -5 -49 0 -67 4 -67 13 0 11 13 12 62 5 34 -4 64
-10 66 -13z"/>
<path d="M7811 8801 c-48 -48 -94 -254 -141 -626 -41 -330 -54 -486 -54 -690
-1 -206 1 -214 82 -258 111 -60 343 -101 745 -131 97 -7 181 -16 185 -20 4 -4
10 -184 13 -399 5 -376 10 -434 37 -451 5 -3 14 167 21 392 7 218 15 399 17
401 7 8 118 -21 155 -40 33 -17 99 -81 99 -97 0 -4 5 -36 10 -70 9 -52 6 -108
-15 -300 -13 -131 -30 -300 -35 -377 -6 -77 -15 -180 -20 -230 -13 -119 -13
-307 0 -339 9 -24 3 -32 -64 -99 -88 -87 -138 -179 -144 -266 -4 -51 -1 -59
23 -84 16 -15 44 -30 65 -33 l37 -6 -25 -45 c-30 -55 -27 -121 9 -159 l23 -24
-13 -313 c-18 -465 -50 -794 -80 -831 -14 -16 -133 -4 -164 17 -37 24 -40 83
-16 300 12 106 22 262 24 347 3 150 4 157 34 221 46 97 64 194 57 309 -6 116
-24 176 -73 257 -50 82 -80 115 -101 111 -29 -5 -25 -43 12 -115 53 -101 70
-178 69 -313 0 -139 -16 -210 -77 -348 -27 -61 -46 -117 -46 -139 l0 -36 24
22 c13 12 31 40 41 62 10 21 20 38 22 36 1 -2 -10 -118 -27 -258 -33 -279 -38
-412 -16 -463 20 -49 71 -69 192 -74 99 -4 102 -4 117 19 23 37 66 424 83 747
4 72 10 136 14 142 5 8 14 8 33 -1 19 -9 25 -19 25 -40 -2 -60 53 -86 144 -69
71 14 128 43 187 96 52 46 111 148 111 190 0 59 -52 103 -104 90 l-25 -6 14
41 c24 66 20 177 -8 232 -23 45 -23 47 -6 74 52 82 58 218 13 273 -22 25 -23
33 -15 72 23 106 -51 243 -183 340 -84 61 -107 12 -30 -62 64 -62 132 -155
143 -196 7 -26 6 -49 -6 -87 -12 -42 -30 -66 -97 -133 -65 -65 -100 -90 -175
-127 -98 -49 -119 -55 -139 -35 -52 52 56 206 213 303 40 26 81 57 89 71 16
24 16 24 -16 24 -18 0 -57 -11 -86 -25 l-52 -24 5 22 c3 12 9 85 15 162 13
188 47 554 65 695 24 192 55 506 55 565 l0 56 58 -6 c389 -40 816 -66 797 -47
-5 5 -66 28 -135 51 -211 69 -317 86 -640 101 -684 32 -1039 66 -1252 121
-117 29 -173 55 -188 87 -19 39 -25 277 -10 451 26 322 57 557 111 839 16 85
29 158 29 163 0 15 -19 10 -39 -10z m1445 -3436 c18 -98 -34 -205 -160 -331
-133 -133 -216 -159 -216 -67 0 18 9 52 21 74 25 50 143 179 216 235 30 24 69
61 86 83 17 23 35 41 39 41 4 0 10 -16 14 -35z m-1 -390 c0 -107 -37 -188
-132 -286 -96 -99 -173 -119 -173 -44 0 82 64 190 204 344 42 47 76 89 76 95
0 6 6 2 13 -9 7 -11 12 -55 12 -100z m-317 -167 c-22 -43 -23 -43 -26 -15 -5
40 4 57 28 57 20 0 20 0 -2 -42z m410 -55 c5 -10 5 -32 1 -48 -13 -47 -102
-140 -162 -169 -55 -27 -147 -45 -147 -29 0 5 43 53 95 106 52 53 95 101 95
107 0 12 69 49 92 50 10 0 21 -8 26 -17z"/>
<path d="M6213 8743 c-13 -33 -15 -112 -16 -568 -1 -558 4 -649 43 -725 35
-68 44 -52 34 63 -5 56 -8 346 -6 644 3 532 -1 623 -29 623 -5 0 -17 -17 -26
-37z"/>
<path d="M2402 8589 c-166 -32 -525 -186 -1297 -554 -181 -86 -391 -184 -465
-217 -74 -33 -157 -72 -184 -85 -47 -24 -49 -26 -31 -39 27 -20 72 -17 151 10
75 25 173 70 679 311 762 362 1107 505 1223 505 52 0 187 -161 266 -318 53
-106 150 -362 251 -667 89 -269 152 -425 172 -425 12 0 -9 136 -38 248 -38
150 -136 448 -205 625 -126 324 -276 555 -391 604 -36 14 -66 15 -131 2z"/>
<path d="M10047 8442 c-20 -22 -40 -107 -66 -287 -32 -218 -41 -342 -41 -586
0 -268 13 -416 42 -479 20 -44 20 -45 28 -18 4 14 3 82 -2 150 -19 237 2 632
52 1011 29 216 27 253 -13 209z"/>
<path d="M5333 8405 c-59 -30 -127 -98 -168 -170 -16 -28 -29 -51 -31 -53 -1
-2 -37 21 -80 50 -100 68 -172 92 -264 86 -79 -4 -108 -20 -155 -87 -27 -39
-30 -50 -30 -119 1 -89 20 -135 88 -209 122 -132 363 -244 493 -229 94 11 92
18 -12 47 -138 38 -192 64 -242 112 -98 95 -115 202 -43 271 59 56 160 45 238
-27 23 -22 43 -35 43 -29 0 20 53 73 93 94 104 53 217 -17 217 -135 0 -35 -12
-54 -107 -166 -29 -34 -53 -66 -53 -72 0 -5 17 -9 37 -9 32 0 45 8 98 63 114
118 177 253 182 392 3 80 1 95 -19 130 -50 86 -179 113 -285 60z"/>
<path d="M8785 8353 c-156 -56 -261 -169 -309 -332 -47 -161 21 -354 167 -471
87 -71 138 -93 221 -94 39 -1 82 -8 95 -15 63 -35 228 29 323 123 105 105 160
264 138 399 -23 146 -136 289 -286 363 -74 37 -83 39 -188 42 -86 2 -122 -2
-161 -15z m374 -132 c71 -54 127 -121 158 -187 24 -50 28 -72 28 -144 0 -75
-4 -92 -32 -150 -17 -36 -40 -76 -51 -89 l-19 -23 -108 128 c-59 71 -114 136
-121 145 -11 13 -12 47 -2 201 l12 186 43 -15 c24 -8 65 -32 92 -52z m-210
-18 c0 -43 -4 -126 -8 -185 l-7 -106 -50 -45 c-27 -24 -88 -76 -136 -115 l-87
-71 -29 27 c-52 49 -67 88 -67 182 0 72 4 94 27 143 52 112 158 198 281 232
80 21 77 24 76 -62z m-39 -494 c-5 -41 -10 -107 -10 -146 0 -55 -3 -73 -14
-73 -18 0 -145 65 -174 90 -13 11 -21 24 -17 29 8 14 218 182 222 178 1 -2 -1
-37 -7 -78z m145 -14 c26 -38 61 -84 78 -102 l29 -31 -51 -26 c-28 -15 -70
-29 -94 -32 l-42 -6 7 123 c3 68 7 133 7 144 1 23 3 20 66 -70z"/>
<path d="M2053 7792 c-40 -31 -91 -200 -65 -216 32 -19 116 125 110 189 -4 45
-14 51 -45 27z"/>
<path d="M1563 7783 c-23 -8 -14 -71 18 -135 30 -60 74 -118 90 -118 20 0 18
46 -6 112 -40 112 -70 152 -102 141z"/>
<path d="M2390 7541 c-80 -20 -150 -85 -122 -113 9 -9 25 -8 68 7 66 22 107
57 102 87 -3 24 -13 28 -48 19z"/>
<path d="M1750 7516 c-154 -42 -267 -164 -301 -326 -14 -65 -7 -204 11 -242
18 -39 55 -36 130 8 71 41 229 117 446 214 239 106 263 136 176 219 -118 115
-313 168 -462 127z m203 -61 c74 -19 138 -52 210 -108 l57 -44 -39 -10 c-36
-10 -44 -8 -83 19 -120 81 -235 121 -333 116 -74 -4 -73 5 5 26 71 19 113 19
183 1z"/>
<path d="M330 7432 c0 -17 25 -68 62 -127 82 -133 170 -319 261 -550 103 -261
149 -370 185 -440 45 -90 128 -203 162 -220 30 -15 60 -20 60 -9 0 3 -29 47
-64 98 -88 127 -128 210 -251 531 -145 378 -249 581 -360 704 -44 48 -55 51
-55 13z"/>
<path d="M1217 7406 c-10 -26 34 -60 102 -79 68 -19 99 -21 120 -8 24 15 5 38
-56 66 -75 34 -157 45 -166 21z"/>
<path d="M2959 7043 c-94 -19 -303 -87 -474 -154 -319 -125 -714 -338 -965
-521 -52 -38 -144 -104 -205 -148 -60 -43 -120 -94 -132 -112 -49 -74 -30 -66
152 57 86 58 197 131 248 162 108 66 356 203 367 203 4 0 23 -35 43 -77 19
-43 86 -180 147 -305 l113 -227 -17 -36 c-23 -49 -33 -120 -46 -325 -14 -227
-33 -393 -65 -559 -28 -152 -31 -217 -11 -312 29 -137 109 -293 317 -619 123
-194 253 -435 243 -452 -3 -4 -12 -8 -21 -8 -9 0 -48 -16 -87 -35 -191 -93
-248 -194 -138 -243 31 -14 71 -17 267 -17 266 1 406 20 591 80 155 50 345
146 399 200 73 72 70 140 -8 182 -40 21 -148 24 -194 4 -62 -26 -35 -47 67
-53 42 -3 84 -9 94 -15 13 -7 -21 -9 -110 -5 -71 2 -131 7 -134 9 -3 3 -5 77
-4 166 1 162 26 339 80 577 24 108 25 257 0 294 -26 40 -32 23 -39 -104 -4
-58 -22 -181 -41 -275 -82 -400 -84 -646 -6 -807 11 -23 20 -45 20 -49 0 -11
-186 -79 -277 -100 -85 -20 -273 -48 -325 -49 l-28 0 0 74 c0 128 -62 299
-177 486 -22 36 -91 144 -154 240 -245 378 -311 570 -263 770 36 153 62 360
84 675 12 165 26 244 46 252 48 18 122 -114 154 -274 26 -133 26 -289 0 -425
-30 -152 -26 -165 32 -108 16 17 31 30 33 30 1 0 6 -17 10 -37 13 -73 239
-751 301 -907 78 -194 103 -239 144 -256 40 -17 107 -7 181 26 78 35 93 53 91
113 -2 81 -102 398 -172 543 l-28 57 40 6 c22 4 80 27 128 51 98 49 226 159
254 218 20 43 21 95 1 123 -22 32 -82 48 -129 35 -29 -8 -35 -8 -28 1 95 121
121 172 122 235 0 58 -22 98 -63 113 l-34 12 17 36 c27 55 32 95 20 140 -12
46 -51 81 -90 81 -26 0 -27 1 -22 55 4 48 1 59 -21 89 -76 99 -247 103 -427
10 -36 -18 -77 -41 -92 -51 -15 -9 -29 -15 -31 -13 -2 3 -33 88 -70 190 -36
102 -95 266 -131 365 -35 99 -85 229 -110 289 -26 60 -45 110 -44 111 2 1 50
21 108 45 160 65 328 123 510 175 168 49 220 68 220 85 0 25 -135 33 -231 13z
m-599 -513 c21 -58 91 -249 155 -425 64 -176 143 -401 175 -500 33 -99 70
-202 84 -230 l26 -50 -29 -35 c-46 -57 -71 -112 -71 -153 0 -48 51 -131 91
-149 20 -9 25 -16 20 -28 -14 -27 -21 -79 -14 -110 8 -45 55 -90 91 -90 29 0
30 -1 25 -39 -7 -50 8 -76 57 -97 22 -10 40 -24 40 -31 0 -7 29 -88 63 -180
58 -152 117 -340 117 -370 0 -6 -30 -17 -68 -23 -54 -10 -73 -10 -91 0 -43 22
-162 308 -362 865 -68 188 -83 240 -82 285 1 30 2 107 3 170 3 163 -30 310
-106 461 -37 74 -102 139 -139 139 -20 0 -30 10 -51 52 -33 65 -125 300 -153
392 -30 96 -28 119 15 166 36 39 127 92 153 87 7 -1 30 -49 51 -107z m773
-704 c84 -30 97 -73 46 -149 -59 -89 -232 -197 -316 -197 -23 0 -44 4 -47 9
-8 12 58 76 124 121 66 45 84 65 75 81 -20 31 -130 -17 -211 -93 l-32 -30 -21
63 c-11 34 -20 63 -18 64 19 15 152 87 182 100 42 17 139 43 165 44 8 0 32 -6
53 -13z m174 -204 c21 -13 33 -59 23 -92 -32 -113 -226 -312 -377 -389 -90
-45 -183 -47 -183 -3 0 29 52 101 119 167 33 33 61 65 61 73 0 7 -10 17 -22
22 -16 6 -18 9 -7 9 41 2 179 84 252 151 74 67 104 81 134 62z m-435 -242
c-40 -25 -42 -25 -42 0 0 16 7 20 38 20 l37 0 -33 -20z m509 -37 c6 -15 8 -42
4 -59 -23 -123 -325 -416 -453 -440 -70 -13 -67 26 8 139 27 41 50 79 50 85 0
6 21 22 46 37 66 39 173 133 230 204 39 48 55 61 77 61 21 0 30 -7 38 -27z
m33 -339 c10 -4 16 -18 16 -40 0 -100 -339 -298 -414 -241 -19 14 -19 15 3 50
12 19 41 47 64 60 24 14 75 55 115 92 40 37 72 65 72 63 0 -3 26 1 58 8 72 16
67 15 86 8z m-719 -1453 c-3 -5 -38 -27 -79 -50 -40 -22 -94 -56 -120 -75 -25
-20 -51 -36 -56 -36 -39 0 42 73 149 135 45 26 84 51 87 57 4 7 10 4 16 -6 5
-9 7 -20 3 -25z"/>
<path d="M1263 7031 c-75 -22 -113 -45 -113 -71 0 -33 55 -35 125 -5 75 33
109 63 94 82 -14 17 -29 16 -106 -6z"/>
<path d="M8537 6122 c-9 -10 -35 -63 -57 -117 -50 -123 -120 -256 -294 -555
-181 -311 -181 -311 -180 -480 0 -153 7 -188 104 -530 139 -492 163 -603 180
-844 6 -82 13 -153 16 -158 3 -4 -24 -8 -60 -8 -36 0 -66 -4 -66 -9 0 -14 86
-46 205 -77 104 -27 121 -29 305 -28 178 0 203 2 292 26 166 45 279 113 223
134 -9 4 -49 -8 -90 -25 -41 -17 -77 -31 -80 -31 -11 0 -4 184 11 291 24 172
72 327 148 471 46 87 66 136 66 161 0 77 -36 46 -110 -93 -127 -239 -169 -400
-178 -677 -4 -148 -7 -173 -21 -177 -79 -22 -155 -30 -286 -29 -126 1 -165 5
-240 25 -77 21 -90 28 -87 44 2 10 6 76 9 145 8 201 -24 371 -156 819 -111
377 -138 539 -112 671 15 77 28 102 188 377 158 273 232 412 278 530 21 50 43
92 50 92 24 0 63 -58 74 -110 14 -66 13 -118 -3 -210 -29 -157 -94 -299 -187
-405 l-53 -60 28 -3 c81 -10 190 139 253 345 23 76 26 107 27 223 1 128 0 138
-27 192 -42 86 -128 127 -170 80z"/>
<path d="M6710 3608 c-1 -131 114 -743 177 -941 45 -145 102 -255 124 -241 16
10 9 51 -25 146 -61 169 -136 482 -191 803 -27 155 -47 230 -69 260 -14 19
-15 17 -16 -27z"/>
<path d="M3764 3553 c32 -113 80 -302 101 -398 86 -403 174 -734 236 -895 40
-104 102 -205 125 -205 32 0 27 30 -25 148 -27 63 -61 152 -75 198 -25 83
-141 542 -210 831 -37 156 -83 288 -112 319 -22 24 -47 25 -40 2z"/>
<path d="M9268 3393 c0 -5 -2 -55 -2 -113 -1 -143 -8 -152 -123 -179 -249 -58
-545 -84 -718 -62 -99 12 -214 47 -290 89 -48 26 -50 29 -53 75 -2 26 6 78 17
117 21 74 17 84 -16 48 -55 -60 -77 -166 -49 -232 9 -22 14 -41 11 -44 -3 -3
-5 0 -5 6 0 18 -17 14 -24 -5 -21 -54 -102 -367 -122 -473 -35 -178 -49 -351
-35 -435 12 -77 22 -95 45 -76 13 11 32 11 99 1 124 -19 213 -9 342 35 96 33
121 38 200 38 107 0 181 -25 247 -80 71 -59 121 -77 218 -77 94 -1 147 19 244
89 26 19 58 35 71 35 20 0 23 -6 28 -56 6 -57 12 -72 23 -61 14 13 16 306 5
500 -21 346 -40 478 -72 500 -26 19 -26 37 0 90 35 72 29 214 -12 265 -11 13
-26 16 -29 5z"/>
<path d="M5501 3310 c-1 -19 6 -75 13 -125 8 -49 29 -205 46 -345 65 -542 83
-661 114 -733 16 -40 27 -45 46 -22 17 20 9 122 -23 310 -14 83 -40 242 -57
355 -43 286 -84 479 -113 542 l-25 53 -1 -35z"/>
<path d="M2390 3226 c0 -183 163 -871 292 -1231 89 -247 182 -435 215 -435 27
0 11 65 -46 199 -100 235 -261 762 -346 1136 -24 105 -51 224 -60 265 -16 70
-39 130 -50 130 -3 0 -5 -29 -5 -64z"/>
<path d="M6121 3242 c-11 -21 -3 -36 62 -114 43 -52 81 -64 92 -28 7 24 5 28
-54 102 -49 61 -82 74 -100 40z"/>
<path d="M2700 3207 c0 -32 25 -65 39 -52 8 8 7 20 -1 43 -14 37 -38 43 -38 9z"/>
<path d="M2858 3213 c-7 -32 4 -63 21 -63 26 0 29 7 17 45 -12 37 -32 47 -38
18z"/>
<path d="M3461 3200 c-221 -103 -538 -150 -751 -113 -141 25 -184 17 -124 -21
75 -50 364 -64 564 -28 191 35 337 87 409 147 61 52 2 61 -98 15z"/>
<path d="M6546 3183 c-38 -40 -98 -165 -90 -186 4 -10 17 -17 35 -17 24 0 31
7 48 45 11 24 33 64 50 89 34 48 37 66 19 84 -18 18 -35 14 -62 -15z"/>
<path d="M5750 3080 c-9 -18 -4 -28 43 -78 30 -31 60 -67 66 -79 14 -26 58
-31 67 -8 11 29 -6 64 -62 125 -60 65 -94 77 -114 40z"/>
<path d="M3651 2804 c-37 -31 -41 -74 -11 -104 45 -45 130 -3 130 66 0 65 -63
85 -119 38z m69 -37 c0 -7 -6 -21 -13 -30 -11 -16 -14 -16 -35 -1 -18 12 -21
19 -11 30 14 18 59 18 59 1z"/>
<path d="M2780 2707 c-32 -16 -61 -74 -54 -107 12 -56 66 -87 121 -69 80 26
82 150 2 178 -39 14 -38 14 -69 -2z m61 -47 c22 -12 26 -59 7 -78 -20 -20 -55
-13 -77 14 -24 31 -26 44 -7 44 7 0 19 7 26 15 15 18 25 19 51 5z"/>
<path d="M6316 2688 c-8 -13 -25 -44 -37 -70 -19 -40 -20 -49 -9 -63 26 -31
53 -14 89 57 28 56 31 70 21 83 -18 22 -47 18 -64 -7z"/>
<path d="M5947 2553 c-14 -13 -6 -42 28 -98 19 -32 37 -66 40 -76 8 -23 42
-30 61 -12 16 17 13 35 -19 98 -33 68 -57 95 -81 95 -12 0 -26 -3 -29 -7z"/>
<path d="M6663 2498 c-25 -27 -73 -119 -73 -141 0 -20 25 -39 45 -35 9 2 35
38 58 81 33 62 39 81 31 95 -16 25 -37 25 -61 0z"/>
<path d="M3088 2410 c-24 -15 -24 -72 0 -93 25 -23 69 -22 82 2 12 23 13 61 2
78 -11 18 -64 25 -84 13z m42 -45 c0 -8 -4 -15 -9 -15 -13 0 -22 16 -14 24 11
11 23 6 23 -9z"/>
<path d="M3710 2261 c-22 -6 -25 -13 -25 -51 0 -39 3 -46 26 -54 61 -21 113
28 87 82 -14 29 -43 36 -88 23z m44 -53 c-3 -4 -12 -8 -20 -8 -17 0 -19 27 -1
33 14 5 28 -13 21 -25z"/>
</g>
</svg>
