<?xml version="1.0" standalone="no"?>
<!DOCTYPE svg PUBLIC "-//W3C//DTD SVG 20010904//EN"
 "http://www.w3.org/TR/2001/REC-SVG-20010904/DTD/svg10.dtd">
<svg version="1.0" xmlns="http://www.w3.org/2000/svg"
 width="1040.000000pt" height="1041.000000pt" viewBox="0 0 1040.000000 1041.000000"
 preserveAspectRatio="xMidYMid meet">
<metadata>
Created by potrace 1.15, written by Peter Selinger 2001-2017
</metadata>
<g transform="translate(0.000000,1041.000000) scale(0.100000,-0.100000)"
fill="#000000" stroke="none">
<path d="M5283 9508 c-31 -35 -37 -122 -13 -176 14 -31 25 -43 37 -40 13 3 18
12 16 33 0 17 6 63 14 103 12 57 13 75 3 87 -17 21 -33 19 -57 -7z"/>
<path d="M5551 9379 c-65 -26 -92 -44 -111 -74 -21 -34 -26 -65 -10 -65 5 0
25 14 44 30 32 28 81 50 149 64 33 8 36 32 5 41 -45 13 -53 13 -77 4z"/>
<path d="M4151 9295 c-121 -34 -225 -116 -271 -213 l-24 -50 -44 38 c-64 57
-124 74 -236 67 -248 -15 -445 -170 -591 -466 -136 -274 -215 -689 -215 -1126
0 -221 19 -351 54 -382 65 -55 211 -36 610 78 76 22 140 38 142 36 2 -2 -33
-18 -79 -37 -271 -109 -516 -259 -643 -392 -81 -85 -116 -138 -184 -281 -145
-303 -320 -956 -320 -1191 0 -54 4 -67 25 -89 29 -29 92 -47 164 -47 l49 0
-37 -67 c-46 -84 -93 -152 -105 -153 -15 0 -147 -103 -188 -145 -49 -51 -64
-88 -50 -120 15 -32 43 -32 90 0 20 14 40 25 44 25 5 0 8 -24 8 -53 0 -103 43
-194 87 -185 10 2 28 -8 41 -24 21 -24 31 -28 77 -28 64 0 69 5 142 160 28 58
59 116 70 129 l19 24 34 -44 c44 -58 59 -69 91 -69 61 0 63 63 9 235 -24 74
-34 126 -37 200 l-5 101 41 -4 c34 -3 40 -1 35 11 -3 9 -22 23 -42 33 -30 14
-75 19 -232 24 -120 4 -203 11 -217 18 -12 6 -29 32 -38 56 -15 39 -16 55 -5
133 46 351 221 912 361 1160 56 97 185 229 300 306 175 116 529 270 804 350
163 48 187 50 298 33 250 -41 393 -1 509 141 65 79 102 146 124 220 10 33 23
57 36 64 52 28 705 256 712 249 2 -3 -7 -39 -21 -80 -49 -144 -33 -238 65
-381 47 -69 89 -161 105 -229 6 -24 3 -26 -55 -37 -93 -18 -97 -25 -66 -130
14 -49 47 -169 72 -268 77 -296 91 -329 116 -273 11 23 -13 126 -111 490 -22
80 -22 89 -8 104 22 21 70 31 218 44 156 13 245 34 294 67 20 14 36 28 34 30
-2 2 -68 -6 -146 -17 -168 -24 -239 -25 -267 -5 -12 8 -32 40 -44 72 -28 71
-64 134 -107 191 -42 56 -75 145 -75 202 -1 78 85 306 120 318 21 7 14 -56
-19 -150 l-30 -89 24 -42 c15 -25 27 -67 31 -105 13 -113 28 -122 53 -31 9 34
22 63 29 66 6 2 27 -5 45 -16 19 -12 41 -21 50 -21 9 0 22 -7 29 -15 26 -31
117 -8 140 34 10 20 14 61 5 61 -3 0 -24 -13 -47 -30 -49 -36 -58 -37 -58 -8
0 25 101 128 125 128 45 0 26 -101 -50 -254 -61 -125 -67 -149 -32 -144 17 2
36 30 86 129 58 114 64 133 69 201 4 67 2 78 -17 97 -14 14 -34 21 -61 21 -37
0 -47 -6 -120 -81 -103 -104 -125 -98 -57 15 31 50 132 126 167 126 22 0 44
25 35 40 -9 15 -62 12 -101 -6 -51 -24 -131 -100 -162 -153 -30 -51 -42 -37
-22 25 17 50 65 101 124 131 51 26 78 51 70 65 -9 13 -53 9 -87 -8 -91 -47
-133 -101 -172 -219 -6 -18 -7 -18 -15 -4 -20 35 19 110 93 181 38 36 67 71
63 76 -3 5 22 20 57 32 129 47 192 91 152 106 -27 11 -78 -2 -209 -53 -122
-47 -131 -49 -156 -35 -39 22 -70 9 -113 -48 -20 -27 -44 -50 -52 -50 -15 0
-135 -43 -518 -184 -98 -36 -180 -66 -183 -66 -2 0 -4 47 -4 105 0 168 -40
324 -97 377 -23 21 -25 21 -20 3 23 -79 48 -193 57 -265 11 -81 6 -224 -8
-247 -4 -6 -25 -19 -47 -31 -22 -11 -51 -32 -65 -47 l-25 -28 31 6 c18 3 43 9
58 13 33 8 33 -2 1 -71 -72 -152 -220 -235 -421 -235 -250 0 -475 138 -604
371 -47 84 -64 89 -58 16 5 -56 5 -57 -21 -51 -117 26 -180 70 -201 142 -12
37 -11 47 5 83 31 69 86 84 175 49 148 -58 188 -11 256 304 18 88 37 163 42
168 4 4 22 -12 40 -37 18 -26 42 -47 58 -51 50 -13 273 39 389 91 65 28 74 51
56 140 -7 33 -15 71 -17 85 l-5 25 20 -24 c19 -21 37 -72 56 -155 6 -27 8 -28
51 -23 52 5 251 101 307 147 33 28 37 36 37 79 0 71 -24 140 -80 224 -88 135
-209 235 -339 280 -76 27 -255 33 -330 12z m505 -198 c80 -73 156 -188 179
-269 l17 -62 -28 -24 -28 -25 -12 64 c-24 127 -90 245 -196 350 -49 49 -56 58
-29 43 18 -10 62 -45 97 -77z m1128 -991 c-10 -8 -21 -12 -24 -10 -5 6 21 24
34 24 6 0 1 -6 -10 -14z m-2937 -2880 c2 -1 -2 -17 -8 -35 -20 -57 -5 -183 36
-301 47 -139 44 -164 -13 -87 -37 49 -47 57 -76 57 -40 0 -70 -38 -145 -187
-28 -57 -53 -103 -56 -103 -8 0 7 105 22 153 8 26 35 74 60 107 24 33 42 64
38 70 -34 56 -156 -109 -170 -230 -10 -89 -15 -104 -27 -92 -6 6 -13 44 -16
84 -5 77 8 116 67 203 21 31 28 75 12 75 -15 0 -87 -87 -107 -128 -12 -23 -20
-70 -24 -127 -5 -87 -5 -89 -18 -54 -7 19 -13 67 -14 106 -1 81 15 123 107
273 32 52 69 114 82 137 29 50 61 72 122 83 40 7 119 5 128 -4z m-474 -327
c-22 -39 -98 -119 -113 -119 -19 0 -10 21 24 62 30 34 93 88 104 88 2 0 -5
-14 -15 -31z"/>
<path d="M5472 9174 c-12 -8 -22 -22 -22 -30 0 -13 8 -14 38 -9 21 3 57 2 81
-4 67 -15 93 6 53 42 -24 22 -119 23 -150 1z"/>
<path d="M4455 8425 c-50 -13 -105 -60 -105 -89 0 -22 33 -95 76 -166 22 -36
48 -82 59 -102 l19 -37 -24 -26 -23 -25 26 0 c27 0 67 30 67 50 0 6 -13 37
-30 70 -35 70 -36 73 -11 65 27 -8 70 11 82 39 15 32 -22 119 -48 114 -18 -4
-19 -11 -11 -78 3 -21 -1 -24 -21 -22 -71 10 -129 106 -87 142 8 6 42 17 75
23 45 9 61 16 61 28 0 9 -10 19 -22 23 -28 7 -22 8 -83 -9z"/>
<path d="M4198 8350 c-60 -11 -132 -61 -136 -93 -4 -36 19 -36 66 3 21 17 59
34 90 40 39 9 52 16 52 30 0 14 -24 35 -33 29 -1 -1 -19 -5 -39 -9z"/>
<path d="M4274 8226 c-3 -8 2 -28 10 -45 21 -40 20 -58 -4 -71 -24 -13 -79 0
-129 30 -18 12 -40 19 -47 16 -44 -17 26 -78 112 -97 45 -10 57 -9 90 7 36 17
39 23 42 64 2 31 -4 55 -18 78 -21 33 -47 42 -56 18z"/>
<path d="M4508 7835 c-16 -36 4 -78 35 -73 17 2 23 11 25 36 6 58 -38 85 -60
37z"/>
<path d="M4730 7407 c0 -21 30 -43 90 -67 196 -76 427 -268 670 -555 117 -138
191 -207 207 -191 9 9 -21 50 -162 221 -141 171 -305 335 -420 420 -168 125
-385 221 -385 172z"/>
<path d="M6246 7230 c3 -36 15 -132 27 -215 29 -206 31 -597 4 -725 -39 -179
-87 -266 -172 -310 -75 -38 -194 -41 -300 -5 -147 48 -289 147 -497 343 -129
122 -186 168 -194 159 -26 -25 87 -158 261 -306 123 -106 194 -156 289 -207
107 -56 183 -77 281 -78 191 -1 299 82 360 277 78 246 57 882 -35 1072 l-29
60 5 -65z"/>
<path d="M4460 7051 c-14 -27 -13 -47 5 -64 20 -20 54 -10 67 19 21 46 -48 88
-72 45z"/>
<path d="M4920 6730 c0 -62 44 -163 208 -477 196 -374 210 -406 214 -462 l3
-45 -80 -18 c-440 -99 -655 -158 -875 -240 -205 -76 -388 -175 -449 -241 -38
-42 -6 -62 53 -32 15 8 29 15 31 15 1 0 -1 -19 -6 -42 -4 -24 -11 -108 -15
-186 -4 -90 -11 -145 -18 -147 -108 -29 -161 -46 -264 -87 -68 -27 -147 -60
-175 -74 l-51 -26 -23 26 c-40 47 -37 19 -79 731 -40 694 -39 752 10 861 31
67 76 111 172 166 74 42 114 60 239 104 42 15 46 19 27 23 -23 6 -22 6 8 24
17 11 30 21 28 23 -8 7 -166 -39 -262 -77 -267 -107 -400 -204 -445 -324 -109
-289 -188 -883 -131 -975 21 -35 33 12 41 167 4 87 17 214 29 283 39 232 111
501 145 546 14 18 14 18 15 -2 0 -12 7 -86 15 -165 14 -139 18 -209 50 -809
14 -258 36 -516 54 -630 4 -28 6 -72 4 -98 -5 -44 -2 -50 35 -93 53 -60 177
-141 356 -235 l145 -75 -19 -32 c-11 -18 -44 -103 -74 -189 -30 -86 -137 -358
-237 -604 -100 -247 -208 -519 -239 -604 -32 -85 -74 -195 -94 -243 -20 -48
-66 -174 -102 -280 -50 -145 -67 -211 -71 -269 l-6 -77 52 3 c53 2 99 26 50
26 -13 0 -34 3 -45 6 l-22 6 23 56 c13 32 42 111 65 177 44 125 331 843 465
1165 155 370 305 772 305 816 0 8 2 14 4 14 2 0 48 -21 103 -46 54 -25 108
-50 121 -55 16 -6 22 -15 18 -27 -3 -9 -17 -66 -31 -127 -26 -114 -209 -726
-296 -990 -57 -175 -99 -344 -99 -397 0 -37 1 -38 38 -38 56 0 75 17 28 25
-29 6 -36 11 -30 24 4 9 51 144 105 301 171 499 306 941 342 1118 7 35 16 63
20 63 4 1 21 -4 37 -10 26 -9 30 -15 30 -48 0 -21 9 -94 20 -163 11 -69 40
-316 65 -550 25 -234 56 -515 70 -625 13 -110 31 -265 40 -345 21 -197 62
-435 80 -470 20 -39 20 -40 -22 -40 -46 0 -73 -14 -48 -24 9 -3 39 -6 67 -6
l51 0 -7 73 c-4 39 -16 142 -26 227 -11 85 -31 277 -45 425 -31 340 -59 628
-85 865 -21 190 -75 577 -86 618 l-7 23 49 -20 c329 -129 421 -145 507 -87
l35 24 159 -93 c308 -178 530 -318 1298 -817 715 -464 929 -595 1171 -716 258
-129 343 -136 454 -35 l40 35 70 -21 c75 -23 414 -164 545 -227 77 -38 79 -39
45 -42 -69 -5 -170 -24 -175 -33 -10 -15 47 -23 175 -23 133 -1 180 6 180 27
0 15 -38 45 -88 71 l-34 17 40 30 c120 88 352 449 382 595 28 132 -52 187
-157 108 -26 -20 -77 -64 -113 -98 -100 -94 -170 -152 -236 -191 -79 -48 -102
-44 -263 44 l-130 71 46 82 c101 178 186 397 199 506 12 108 -26 153 -236 279
-127 76 -547 287 -1215 611 -472 228 -1143 578 -1131 589 7 7 304 -35 324 -46
16 -8 22 -21 22 -44 0 -18 4 -37 8 -43 4 -7 93 -50 197 -97 259 -115 492 -230
555 -272 29 -19 56 -35 60 -35 16 0 50 88 69 180 61 296 54 573 -17 724 -71
148 -210 256 -432 334 -210 73 -385 97 -1025 142 -284 20 -327 37 -409 159
-26 40 -45 75 -41 79 3 4 21 12 38 18 56 19 50 55 -43 239 -107 210 -385 739
-416 790 l-24 40 0 -35z m-873 -1522 c-3 -7 -5 -2 -5 12 0 14 2 19 5 13 2 -7
2 -19 0 -25z m-30 -449 l10 -60 -44 -31 c-79 -54 -105 -128 -63 -181 29 -36
136 -105 260 -167 58 -29 125 -71 150 -92 78 -70 216 -154 414 -254 216 -109
223 -114 204 -125 -31 -20 -127 -9 -230 27 -403 140 -1077 463 -1195 573 -25
22 -33 38 -33 63 0 78 27 97 273 194 92 36 182 77 200 89 17 13 35 24 38 24 3
1 11 -26 16 -60z m5210 -2131 c-12 -103 -109 -281 -263 -484 -51 -68 -98 -132
-104 -143 -11 -21 -11 -21 -59 3 -58 30 -367 167 -442 196 -74 29 -89 45 -89
93 0 39 18 78 68 144 l24 32 46 -29 c77 -47 235 -120 274 -126 70 -12 172 50
352 212 179 162 202 174 193 102z"/>
<path d="M3753 6386 c4 -30 3 -45 -3 -41 -15 9 -12 -16 9 -77 38 -111 45 -191
46 -558 1 -195 5 -373 9 -395 11 -52 24 -77 39 -72 15 5 20 621 6 826 -15 213
-50 343 -99 359 -10 4 -12 -5 -7 -42z"/>
<path d="M4797 3703 c-17 -16 -3 -62 43 -144 55 -98 64 -117 182 -389 195
-450 314 -705 354 -757 l25 -33 -28 -1 c-40 -1 -70 -14 -54 -23 20 -13 128
-20 134 -9 4 6 -23 70 -59 144 -36 74 -94 202 -129 284 -34 83 -104 249 -155
370 -180 432 -274 598 -313 558z"/>
<path d="M5861 3136 c-17 -41 -31 -77 -31 -80 0 -3 -31 -78 -69 -168 -69 -164
-81 -205 -67 -245 8 -26 75 -70 168 -112 l66 -29 -9 -44 c-6 -24 -40 -135 -75
-248 -86 -268 -105 -340 -98 -362 12 -40 33 -16 60 67 l27 85 44 -41 c55 -50
238 -170 363 -238 l95 -51 -120 0 c-119 -1 -292 -14 -350 -26 l-30 -7 30 -9
c71 -19 753 -8 769 14 2 1 1 22 -2 46 -5 51 -58 114 -166 200 -111 88 -234
211 -246 247 -8 25 -7 50 5 106 9 41 19 89 22 107 4 24 10 31 22 28 167 -52
280 -79 339 -83 69 -5 75 -4 102 22 16 15 38 49 49 76 26 60 58 256 45 276 -5
7 -58 35 -119 62 -232 100 -587 312 -747 443 l-46 38 -31 -74z m287 -718 c59
-17 72 -24 66 -37 -27 -65 -54 -170 -54 -214 0 -84 37 -131 251 -318 76 -66
140 -126 143 -134 18 -47 -105 -17 -272 65 -112 56 -320 188 -391 249 l-33 29
20 59 c78 222 103 288 118 304 22 25 62 24 152 -3z"/>
<path d="M4040 2263 c-54 -9 -127 -37 -173 -65 -90 -57 -109 -110 -61 -168 26
-30 72 -60 94 -60 20 0 9 31 -25 69 -19 21 -35 43 -35 49 0 20 69 70 124 91
99 37 190 26 166 -19 -15 -29 -3 -45 53 -71 30 -14 53 -32 55 -42 5 -24 -24
-56 -65 -73 -39 -17 -63 -17 -99 -4 l-28 11 29 15 c53 27 60 65 19 113 -29 35
-75 47 -131 36 l-38 -8 43 -9 c78 -17 80 -78 3 -117 -71 -37 -76 -67 -14 -96
30 -15 60 -17 185 -13 157 4 202 17 139 39 -18 6 -29 14 -24 18 21 14 43 58
43 86 0 40 -21 68 -65 89 -28 14 -35 23 -35 45 0 35 -39 76 -81 85 -32 6 -37
6 -79 -1z"/>
<path d="M1600 1928 c-30 -16 -37 -50 -15 -68 12 -10 19 -10 27 -2 21 21 66
13 100 -17 18 -16 31 -31 28 -33 -3 -3 -29 -14 -59 -26 l-53 -22 -19 24 c-25
32 -79 56 -126 56 -47 0 -100 -31 -109 -64 -12 -50 20 -61 60 -21 14 14 37 25
51 25 25 0 85 -25 85 -36 0 -2 -34 -20 -76 -39 l-76 -35 -20 25 c-24 31 -85
50 -131 41 -52 -10 -99 -67 -95 -114 2 -29 7 -37 23 -37 14 0 21 9 26 35 4 18
15 40 25 47 23 17 85 17 109 -1 18 -13 12 -17 -65 -56 -93 -46 -150 -85 -150
-102 0 -21 85 -1 172 39 l86 41 11 -24 c15 -34 31 -30 31 9 0 33 3 35 83 70
45 21 85 37 88 37 3 0 11 -18 18 -40 16 -52 34 -42 26 14 l-7 43 44 18 c23 9
48 19 55 22 7 3 13 -8 15 -29 4 -44 21 -39 32 11 8 39 10 40 65 52 66 14 254
7 441 -16 152 -19 420 -64 439 -75 14 -8 -145 -113 -344 -227 -106 -62 -111
-63 -165 -58 -219 22 -625 56 -775 66 -179 12 -343 6 -300 -12 11 -4 34 -8 50
-9 27 -1 28 -2 12 -14 -26 -20 -12 -23 190 -41 98 -9 232 -22 298 -30 353 -42
614 -65 636 -56 42 16 514 310 524 327 7 11 5 18 -8 25 -12 7 -15 17 -11 34 4
17 0 26 -13 33 -52 28 -322 80 -558 107 -132 15 -410 19 -455 6 -21 -6 -28 -2
-45 27 -11 20 -32 44 -46 54 -33 25 -97 33 -129 16z"/>
<path d="M4857 1275 c-72 -20 -149 -60 -201 -106 -39 -35 -46 -46 -46 -78 0
-20 7 -46 15 -57 21 -28 19 -32 -25 -44 -22 -6 -40 -17 -40 -25 0 -18 40 -26
128 -23 88 2 91 11 27 79 -25 26 -45 55 -45 63 0 36 120 107 222 131 79 19
109 19 134 1 17 -13 18 -18 7 -46 -11 -29 -10 -34 13 -55 14 -13 37 -26 52
-30 109 -27 90 -114 -33 -150 -43 -12 -63 -13 -104 -4 -57 12 -65 24 -22 34
72 16 94 88 43 143 -37 39 -97 58 -148 45 l-39 -9 58 -18 c100 -29 101 -85 3
-131 -95 -45 -109 -86 -40 -118 111 -53 314 -15 388 73 38 45 37 116 -2 153
-15 15 -42 32 -60 38 -28 10 -32 15 -32 47 -1 40 -11 59 -50 85 -30 21 -131
22 -203 2z"/>
</g>
</svg>
