<?xml version="1.0" encoding="utf-8"?>
<!-- Generator: Adobe Illustrator 26.0.1, SVG Export Plug-In . SVG Version: 6.00 Build 0)  -->
<svg version="1.1" xmlns="http://www.w3.org/2000/svg" xmlns:xlink="http://www.w3.org/1999/xlink" x="0px" y="0px"
	 viewBox="0 0 612 792" style="enable-background:new 0 0 612 792;" xml:space="preserve">
<style type="text/css">
	.st0{display:none;}
	.st1{fill:none;stroke:#009FC2;stroke-width:15;stroke-miterlimit:10;}
	.st2{fill:none;stroke:#C0151B;stroke-width:15;stroke-miterlimit:10;}
	.st3{fill:none;stroke:#FFFFFF;stroke-width:28;stroke-miterlimit:10;}
	.st4{fill:#ED2224;}
	.st5{fill:#70CDDD;}
	.st6{fill:#FFFFFF;}
</style>
<g id="Layer_1" class="st0">
</g>
<g id="Layer_2">
	<polygon class="st1" points="203.24,297.92 203.24,187.13 98.01,213.7 98.01,298.64 	"/>
	<polygon class="st2" points="230.07,325.37 230.07,208.13 124.96,235.48 124.96,325.37 	"/>
	<polygon class="st3" points="216.72,311.91 216.72,198.07 111.61,224.63 111.61,311.91 	"/>
	<polygon class="st1" points="244.55,93.94 483.77,55.27 483.77,298.09 244.55,298.81 	"/>
	<polygon class="st2" points="269.42,115.65 510.72,77.7 510.72,325.57 269.42,325.57 	"/>
	<polygon class="st3" points="256.06,104.15 497.36,66.2 497.36,311.91 256.06,311.91 	"/>
	<polygon class="st1" points="202.55,340.09 202.55,407.64 132.86,385.82 132.86,340.09 	"/>
	<polygon class="st2" points="229.5,366.84 229.5,443.03 157.04,421.21 157.04,366.84 	"/>
	<polygon class="st1" points="241.86,341.53 386.05,341.53 386.05,480.95 241.86,455.34 	"/>
	<polygon class="st2" points="268.81,369 412.31,369 412.31,513.46 268.81,487.85 	"/>
	<polygon class="st3" points="216.14,353.9 216.14,425.05 145.76,403.23 145.76,353.9 	"/>
	<polygon class="st3" points="255.45,355.34 398.95,355.34 398.95,497.64 255.45,472.03 	"/>
	<g>
		<g transform="translate(567.920543, 488.152921)">
			<g>
				<path class="st4" d="M-153.39,212.64h72.06v-16.01h-72.06v-96.08h72.06V84.54h-72.06c-10.57,0-16.01,5.28-16.01,16.01v96.08
					C-169.41,207.19-163.96,212.64-153.39,212.64z"/>
			</g>
		</g>
	</g>
	<g>
		<g transform="translate(536.983032, 488.152921)">
			<g>
				<path class="st5" d="M-142.27,212.64h72.06v-16.01h-72.06v-96.08h72.06V84.54h-72.06c-10.57,0-16.01,5.28-16.01,16.01v96.08
					C-158.28,207.19-152.84,212.64-142.27,212.64z"/>
			</g>
		</g>
	</g>
	<g>
		<g transform="translate(552.4518, 488.152921)">
			<g>
				<path class="st6" d="M-147.83,212.64h72.06v-16.01h-72.06v-96.08h72.06V84.54h-72.06c-10.57,0-16.01,5.28-16.01,16.01v96.08
					C-163.84,207.19-158.4,212.64-147.83,212.64z"/>
			</g>
		</g>
	</g>
	<g>
		<g transform="translate(135.450486, 488.152921)">
			<g>
				<path class="st4" d="M-13.94,100.55v112.09H2.08V100.55h112.09v112.09h16.01V100.55c0-10.73-5.28-16.01-16.01-16.01H2.08
					C-8.49,84.54-13.94,89.82-13.94,100.55z M50.12,212.64h16.01v-96.08H50.12V212.64z"/>
			</g>
		</g>
	</g>
	<g>
		<g transform="translate(104.513025, 488.152921)">
			<g>
				<path class="st5" d="M-2.81,100.55v112.09H13.2V100.55h112.09v112.09h16.01V100.55c0-10.73-5.28-16.01-16.01-16.01H13.2
					C2.63,84.54-2.81,89.82-2.81,100.55z M61.24,212.64h16.01v-96.08H61.24V212.64z"/>
			</g>
		</g>
	</g>
	<g>
		<g transform="translate(119.981757, 488.152921)">
			<g>
				<path class="st6" d="M-8.37,100.55v112.09H7.64V100.55h112.09v112.09h16.01V100.55c0-10.73-5.28-16.01-16.01-16.01H7.64
					C-2.93,84.54-8.37,89.82-8.37,100.55z M55.68,212.64h16.01v-96.08H55.68V212.64z"/>
			</g>
		</g>
	</g>
	<g>
		<g transform="translate(400.141009, 488.481968)">
			<g>
				<path class="st4" d="M-61.05,116.44h-16.01v96.08h16.01V116.44z M-109.09,100.43h80.06V84.42h-80.06V100.43z"/>
			</g>
		</g>
	</g>
	<g>
		<g transform="translate(369.278921, 486.323874)">
			<g>
				<path class="st5" d="M-49.96,117.22h-16.01v96.08h16.01V117.22z M-98,101.21h80.06V85.2H-98V101.21z"/>
			</g>
		</g>
	</g>
	<g>
		<g transform="translate(384.709965, 487.402921)">
			<g>
				<path class="st6" d="M-55.5,116.83h-16.01v96.08h16.01V116.83z M-103.54,100.82h80.06V84.81h-80.06V100.82z"/>
			</g>
		</g>
	</g>
</g>
</svg>
