<?xml version="1.0" standalone="no"?>
<!DOCTYPE svg PUBLIC "-//W3C//DTD SVG 20010904//EN"
 "http://www.w3.org/TR/2001/REC-SVG-20010904/DTD/svg10.dtd">
<svg version="1.0" xmlns="http://www.w3.org/2000/svg"
 width="1040.000000pt" height="1041.000000pt" viewBox="0 0 1040.000000 1041.000000"
 preserveAspectRatio="xMidYMid meet">
<metadata>
Created by potrace 1.15, written by Peter Selinger 2001-2017
</metadata>
<g transform="translate(0.000000,1041.000000) scale(0.100000,-0.100000)"
fill="#000000" stroke="none">
<path d="M1700 9610 c-146 -4 -285 -10 -310 -14 -63 -10 -160 -37 -160 -45 0
-3 777 -8 1728 -10 950 -2 1952 -4 2227 -5 567 -1 612 3 518 50 -35 17 -69 19
-383 21 -1065 7 -3393 8 -3620 3z"/>
<path d="M1412 7217 c-2 -2107 3 -2662 25 -2702 9 -15 11 -15 24 1 12 15 14
309 17 2043 3 2074 -2 2521 -34 2751 -9 63 -19 120 -23 127 -3 6 -7 -993 -9
-2220z"/>
<path d="M5548 9445 c-9 -15 -14 -2212 -5 -2221 4 -4 15 0 25 9 16 16 17 63
20 585 1 312 -2 794 -7 1072 -8 455 -16 584 -33 555z"/>
<path d="M9026 9371 c-3 -5 10 -18 29 -30 39 -23 72 -71 81 -118 9 -46 32 -63
50 -38 46 63 -42 195 -130 195 -14 0 -27 -4 -30 -9z"/>
<path d="M8023 9316 c-58 -19 -105 -50 -148 -97 -47 -52 -65 -96 -65 -155 0
-45 -1 -46 -27 -39 -155 39 -310 26 -503 -40 -272 -93 -536 -319 -752 -645
-140 -210 -205 -378 -228 -585 -30 -262 74 -425 280 -442 84 -7 194 23 243 67
40 35 30 48 -26 32 -169 -48 -222 -52 -297 -19 l-35 15 60 -5 c82 -7 191 18
284 64 l75 38 38 -77 c25 -49 63 -103 107 -150 l69 -74 -101 -48 c-301 -141
-555 -172 -913 -111 -162 28 -491 115 -722 191 -389 129 -516 159 -577 135
-16 -7 -4 -13 55 -30 81 -24 345 -106 642 -200 211 -67 412 -118 615 -157 309
-58 601 -27 882 93 92 39 111 44 160 40 42 -3 178 -46 228 -72 2 -1 -33 -68
-78 -148 -44 -81 -84 -145 -89 -142 -5 3 -16 29 -25 58 -25 76 -75 189 -93
210 -25 28 -44 22 -31 -10 6 -16 26 -88 45 -161 42 -164 54 -188 94 -194 17
-3 34 0 39 6 15 19 116 228 147 303 l29 73 45 5 c128 17 195 45 321 139 72 53
91 74 114 120 15 31 25 59 22 63 -4 3 -35 -22 -69 -56 -110 -109 -297 -181
-430 -166 -127 14 -229 64 -323 159 -94 95 -145 194 -179 347 -5 25 -3 27 42
32 26 3 55 9 65 12 13 6 17 2 17 -19 0 -50 66 -86 98 -54 18 18 15 25 -17 31
-51 10 -49 70 8 203 23 54 34 69 50 68 96 -3 91 -1 91 -44 0 -21 9 -64 21 -94
51 -139 215 -186 342 -99 70 49 141 182 162 307 l6 39 61 -7 c34 -3 83 -6 109
-6 41 0 49 -3 49 -18 0 -36 15 -33 55 12 22 25 51 48 65 51 57 13 129 -73 130
-154 0 -40 -41 -116 -73 -133 -12 -6 -49 -14 -82 -17 -48 -5 -60 -10 -63 -25
-4 -21 13 -36 44 -36 21 0 21 -2 8 -37 -29 -82 -9 -211 48 -312 42 -74 142
-172 209 -205 136 -66 267 -54 380 35 49 38 86 95 116 176 70 189 21 601 -110
928 -75 187 -200 400 -290 492 l-51 53 26 27 c38 39 50 78 50 154 0 121 -63
214 -186 274 -85 43 -191 55 -263 31z m397 -272 c12 -57 7 -101 -16 -144 -27
-50 -30 -53 -51 -42 -19 11 -19 14 -6 79 15 70 12 167 -7 221 -9 24 -5 22 29
-16 30 -32 43 -58 51 -98z m-820 -541 c34 -32 102 -107 150 -168 102 -129 205
-228 254 -246 20 -7 36 -17 36 -21 0 -18 -173 1 -375 43 -120 24 -297 30 -317
11 -24 -25 16 -39 129 -46 106 -6 189 -22 230 -44 21 -11 21 -14 7 -72 -16
-70 -51 -143 -91 -190 -63 -76 -181 -91 -245 -33 -16 14 -14 17 25 37 46 23
110 115 105 151 -6 39 -36 29 -59 -19 -22 -47 -70 -96 -94 -96 -21 0 -34 31
-45 110 -14 97 -24 114 -40 68 l-13 -35 -36 13 c-83 30 -135 16 -162 -45 -36
-82 -85 -115 -109 -72 -5 11 -10 47 -10 80 0 62 -11 81 -35 61 -11 -9 -15 -33
-15 -80 0 -60 4 -73 27 -100 23 -28 31 -31 70 -28 50 4 55 -5 13 -27 -62 -32
-121 -14 -183 54 -66 73 -84 205 -37 264 17 20 27 22 137 22 127 1 161 8 142
31 -6 7 -26 16 -45 20 -19 3 -34 9 -34 13 0 4 14 28 30 55 22 34 35 46 48 42
42 -12 146 -27 158 -22 22 8 17 53 -8 70 -12 9 -42 16 -67 16 l-44 0 24 26
c27 29 115 91 169 119 29 15 80 35 246 94 1 1 30 -25 64 -56z m1175 -1162
c-69 -153 -223 -217 -368 -153 l-42 19 76 -5 c55 -3 90 0 127 12 71 24 155 87
193 146 18 28 34 48 37 46 2 -3 -8 -32 -23 -65z"/>
<path d="M7431 8300 c-53 -11 -73 -27 -69 -54 3 -19 9 -21 58 -19 154 5 185 9
188 25 8 39 -91 65 -177 48z"/>
<path d="M8807 9324 c-30 -9 -13 -28 31 -37 50 -10 89 -51 97 -105 4 -20 8
-43 11 -50 7 -23 29 -7 41 32 16 45 1 86 -45 130 -30 28 -92 42 -135 30z"/>
<path d="M2220 8859 c-197 -9 -261 -17 -267 -36 -11 -32 35 -35 358 -23 187 7
636 10 1086 8 726 -2 771 -1 823 16 77 26 80 30 35 38 -54 9 -1804 7 -2035 -3z"/>
<path d="M2124 8580 c-136 -8 -174 -15 -174 -30 0 -26 48 -29 361 -19 178 5
513 8 744 7 329 -2 433 1 478 12 32 7 54 17 50 21 -11 11 -1302 19 -1459 9z"/>
<path d="M2015 8051 c-37 -6 -41 -10 -36 -41 2 -14 545 -13 608 0 49 11 81 25
73 33 -8 7 -602 14 -645 8z"/>
<path d="M3527 7973 c-24 -23 35 -94 219 -263 l135 -125 -48 -15 c-27 -8 -49
-22 -51 -31 -2 -13 6 -15 52 -11 63 5 114 -4 100 -18 -6 -6 -34 -18 -64 -28
-59 -20 -82 -44 -62 -64 9 -9 25 -7 74 10 72 25 126 28 153 8 17 -12 13 -14
-36 -25 -94 -21 -140 -41 -137 -60 4 -18 32 -19 119 -3 56 10 139 6 139 -8 0
-4 -37 -15 -82 -25 -102 -22 -130 -34 -126 -54 4 -18 33 -19 123 -4 64 11 135
7 135 -8 0 -5 -29 -22 -65 -38 -49 -23 -65 -35 -65 -50 0 -29 33 -59 97 -88
47 -22 64 -25 112 -19 137 16 171 18 205 12 35 -7 36 -7 22 -34 -27 -54 -66
-194 -66 -241 0 -108 100 -110 168 -4 72 112 147 352 154 488 3 66 2 70 -19
73 -16 2 -23 -2 -23 -14 0 -14 -7 -16 -40 -10 -119 19 -194 74 -264 195 -49
85 -66 94 -198 98 -76 3 -129 0 -163 -10 l-50 -14 -160 162 c-195 198 -260
247 -288 218z m770 -429 c13 -8 36 -41 51 -72 48 -103 150 -179 272 -203 l57
-11 -14 -67 c-9 -43 -22 -74 -37 -90 -24 -23 -24 -23 -73 -7 -73 25 -155 30
-262 16 -93 -12 -98 -12 -139 9 -23 12 -42 25 -42 29 0 4 21 18 46 31 25 14
53 35 61 48 16 24 16 24 37 5 25 -23 106 -65 106 -56 0 17 -84 116 -131 156
-28 23 -57 55 -65 69 -13 26 -13 27 24 33 20 3 48 13 61 23 23 16 23 17 5 24
-10 4 -38 8 -61 8 -66 1 -139 20 -158 41 -14 16 -15 20 -4 24 56 20 232 13
266 -10z m260 -508 c1 -1 -13 -42 -32 -91 -19 -50 -37 -109 -41 -133 -3 -23
-10 -45 -15 -48 -17 -10 -9 61 16 151 14 50 25 100 25 113 0 20 4 22 23 16 12
-3 23 -7 24 -8z"/>
<path d="M1978 7534 c-21 -6 -23 -18 -5 -32 7 -6 191 -15 450 -23 477 -14 784
-5 862 24 50 20 70 18 -345 21 -190 1 -480 5 -645 9 -165 3 -308 4 -317 1z"/>
<path d="M7376 7495 c-25 -32 -32 -35 -77 -35 -47 0 -50 -2 -47 -22 2 -19 10
-24 42 -26 22 -2 49 -1 61 2 35 9 75 55 75 87 0 40 -22 37 -54 -6z"/>
<path d="M4981 7138 c-115 -286 -148 -385 -133 -400 15 -15 26 -3 42 47 7 21
39 96 71 165 68 148 76 175 59 195 -17 21 -29 19 -39 -7z"/>
<path d="M7938 7048 c-9 -7 -46 -89 -81 -183 -36 -93 -68 -179 -72 -190 -6
-14 2 -11 28 14 40 37 93 132 127 226 13 33 26 64 31 69 13 15 80 -37 176
-138 167 -172 310 -382 438 -641 137 -277 192 -471 202 -710 8 -210 -23 -328
-110 -423 -112 -121 -364 -79 -637 107 -89 61 -102 64 -90 19 13 -46 78 -100
190 -157 142 -73 224 -96 350 -96 95 0 110 3 162 28 148 73 223 291 197 571
-31 335 -147 628 -405 1016 -219 331 -436 541 -506 488z"/>
<path d="M7465 6990 c13 -25 13 -29 0 -32 -13 -2 -11 -9 8 -38 13 -19 49 -73
80 -120 67 -101 121 -160 148 -160 34 0 32 27 -9 87 -22 32 -65 96 -96 144
-57 87 -97 131 -129 142 -16 6 -16 4 -2 -23z"/>
<path d="M7383 6708 c-62 -82 -15 -171 54 -102 20 20 24 31 19 57 -6 32 -29
57 -52 57 -6 0 -16 -6 -21 -12z m17 -53 c0 -8 -4 -15 -10 -15 -5 0 -7 7 -4 15
4 8 8 15 10 15 2 0 4 -7 4 -15z"/>
<path d="M4540 6655 c0 -44 88 -94 282 -160 292 -100 618 -177 1103 -261 323
-55 391 -70 500 -104 33 -10 78 -21 100 -25 39 -7 39 -6 22 13 -29 32 -130 81
-209 101 -40 10 -149 31 -243 45 -618 98 -1163 234 -1451 365 -104 47 -104 47
-104 26z"/>
<path d="M6810 6475 c-22 -13 -24 -20 -26 -92 -1 -48 -11 -115 -27 -174 -27
-101 -163 -467 -243 -654 -58 -137 -70 -232 -34 -277 35 -45 43 -36 35 40 -8
79 0 105 115 377 162 382 230 592 233 720 2 76 -6 85 -53 60z"/>
<path d="M2880 6436 c-69 -15 -139 -40 -180 -65 -34 -20 -90 -73 -90 -84 0
-14 140 -155 175 -177 31 -19 32 -19 86 2 41 16 76 22 149 22 87 0 101 -2 163
-31 79 -38 168 -118 197 -178 12 -24 26 -45 33 -48 18 -7 257 0 265 7 12 13 2
106 -19 160 -61 165 -219 306 -417 372 -94 32 -261 41 -362 20z m259 -56 c219
-41 460 -245 449 -378 -3 -40 1 -38 -114 -64 l-61 -14 -11 41 c-21 80 -124
177 -224 212 -76 26 -245 25 -312 -2 l-49 -19 -49 54 c-62 69 -64 101 -10 129
85 43 267 63 381 41z"/>
<path d="M4393 6320 c-18 -4 -107 -8 -197 -8 -173 0 -206 -5 -206 -27 0 -11
32 -14 158 -16 276 -4 305 0 300 34 -4 24 -13 27 -55 17z"/>
<path d="M7432 6237 c-42 -45 -21 -75 80 -112 101 -37 90 -49 -41 -42 -106 5
-114 7 -185 46 -83 46 -127 52 -150 20 -8 -12 -12 -28 -9 -35 3 -8 -1 -14 -11
-14 -28 0 -39 -36 -20 -75 50 -107 243 -205 339 -173 63 21 56 38 -17 38 -77
0 -146 30 -213 91 -50 46 -54 64 -7 30 110 -78 239 -103 308 -60 46 28 34 40
-30 33 -65 -8 -140 12 -215 58 -100 60 -99 101 1 45 117 -65 333 -78 370 -23
27 40 -6 78 -97 111 -27 10 -54 22 -59 27 -19 16 104 7 168 -12 81 -25 126
-63 167 -140 40 -75 84 -117 194 -183 82 -50 90 -57 98 -93 5 -26 3 -62 -8
-109 -23 -103 -26 -106 -76 -60 -23 21 -90 69 -148 106 -98 64 -109 69 -160
69 -31 0 -102 -9 -159 -20 -138 -27 -204 -26 -268 4 -71 33 -76 47 -11 30 33
-8 64 -10 82 -6 33 9 37 25 8 30 -85 15 -128 36 -189 93 -35 32 -68 59 -74 59
-25 0 -19 -33 18 -97 79 -134 152 -177 297 -176 50 1 126 8 170 17 127 25 141
23 241 -40 125 -78 119 -68 94 -155 -11 -40 -20 -98 -20 -128 0 -48 -2 -52
-16 -40 -14 12 -16 29 -10 126 7 109 6 113 -13 113 -15 0 -23 -10 -30 -37 -40
-156 -16 -263 60 -263 97 0 194 135 270 378 17 56 37 102 43 102 6 0 31 -10
56 -21 53 -24 112 -28 134 -10 30 25 13 106 -28 140 -14 12 -16 10 -16 -16 0
-80 -90 -70 -280 32 -110 59 -182 121 -215 185 -29 57 -74 104 -124 130 -56
28 -151 50 -218 50 -49 0 -63 -4 -81 -23z"/>
<path d="M5557 6230 c-7 -32 -22 -951 -22 -1392 0 -351 4 -384 40 -347 13 12
15 127 17 844 3 741 1 835 -13 875 -15 41 -17 43 -22 20z"/>
<path d="M2479 6181 c-79 -50 -155 -165 -195 -296 -27 -88 -26 -318 2 -395
l20 -55 -163 -168 c-164 -168 -190 -207 -139 -207 18 0 44 22 95 78 39 43 108
113 155 155 l84 77 31 -49 c87 -134 273 -260 456 -307 99 -25 274 -23 378 5
194 52 364 186 444 351 67 138 95 308 54 330 -11 5 -85 11 -165 12 -166 3
-156 8 -182 -82 -22 -76 -54 -127 -113 -184 -149 -139 -357 -134 -514 12 -45
42 -97 127 -97 160 0 9 26 12 99 12 l99 0 27 -36 c55 -72 186 -98 256 -51 54
36 89 95 96 160 6 56 7 57 37 58 17 1 134 2 260 3 l228 1 90 94 c105 109 208
244 208 272 0 13 -7 19 -24 19 -18 0 -39 -20 -90 -87 -36 -49 -99 -124 -140
-168 l-74 -80 -253 0 -254 0 -37 41 c-72 80 -169 92 -261 34 -53 -33 -87 -96
-87 -161 l0 -44 -95 0 -95 0 0 52 c0 62 29 145 70 202 35 48 36 51 10 51 -25
0 -86 -54 -107 -94 -24 -47 -43 -125 -43 -181 l0 -51 -99 -92 -99 -92 -12 33
c-21 56 -25 243 -6 317 37 147 125 282 191 294 42 8 115 -20 158 -61 23 -23
27 -24 27 -9 0 27 -135 156 -163 156 -13 0 -43 -13 -68 -29z m611 -351 c16
-11 36 -40 46 -65 16 -42 16 -48 0 -88 -18 -48 -48 -81 -83 -91 -20 -6 -20 -5
6 23 34 37 45 81 31 132 -10 38 -59 89 -86 89 -8 0 -14 5 -14 10 0 18 71 11
100 -10z m570 -208 c0 -11 -9 -53 -20 -96 -71 -280 -299 -459 -601 -474 -137
-6 -232 14 -356 75 -105 51 -219 148 -274 234 l-32 51 89 89 c49 49 91 89 94
89 3 0 12 -17 19 -37 34 -94 116 -177 227 -230 229 -109 509 4 596 240 13 37
29 62 42 67 12 5 65 9 119 9 88 1 97 -1 97 -17z"/>
<path d="M4110 6200 c-14 -3 -26 -14 -28 -23 -3 -16 9 -17 155 -15 156 3 158
3 161 26 l4 23 -134 -2 c-73 -1 -144 -5 -158 -9z"/>
<path d="M6746 5270 c-91 -11 -118 -25 -146 -79 -128 -253 -482 -1747 -615
-2601 -98 -628 -124 -994 -83 -1133 19 -65 88 -108 255 -161 81 -26 217 -56
253 -56 11 0 20 -3 20 -7 -1 -5 -49 -44 -108 -88 -195 -146 -244 -205 -223
-266 10 -29 10 -29 -30 -29 -21 0 -39 -4 -39 -9 0 -26 188 -38 470 -29 224 8
505 35 383 37 -58 1 -85 9 -77 22 8 13 7 163 -1 189 -10 31 -33 25 -190 -48
-189 -87 -298 -124 -372 -126 -93 -2 -97 11 -27 81 74 73 279 223 308 224 11
0 53 2 91 4 39 2 167 8 285 13 297 14 377 38 400 121 19 72 30 325 31 751 2
327 4 394 10 290 32 -566 71 -887 121 -1002 46 -107 164 -156 475 -197 138
-19 145 -21 252 -76 107 -56 213 -131 235 -168 17 -27 -10 -39 -76 -33 -75 7
-280 74 -388 127 -137 66 -155 71 -182 49 -20 -16 -23 -27 -23 -87 0 -37 4
-80 9 -95 l8 -28 -58 -1 c-46 0 -53 -2 -34 -9 26 -9 530 -30 701 -30 111 0
189 9 189 21 0 5 -17 11 -38 15 l-37 6 4 45 c3 45 2 47 -61 107 -35 33 -106
86 -157 116 l-94 55 44 8 c156 28 216 42 309 73 58 19 128 50 157 69 81 54 88
84 87 380 -1 262 -19 463 -75 829 -149 978 -419 2007 -621 2374 -129 232 -250
300 -608 342 -126 14 -634 21 -734 10z m1176 -4297 c57 -25 135 -59 173 -74
l70 -28 -186 -1 -185 0 7 53 c4 28 8 62 8 75 1 12 3 22 6 22 3 0 51 -21 107
-47z m-1162 -5 c1 -18 7 -50 14 -70 l14 -38 -177 0 -176 0 155 69 c85 38 158
69 163 70 4 0 7 -14 7 -31z"/>
<path d="M1966 5013 c-184 -3 -216 -9 -216 -37 0 -15 434 -16 450 0 16 16 1
44 -24 42 -11 -2 -106 -4 -210 -5z"/>
<path d="M1945 4891 c-44 -4 -61 -10 -63 -22 -3 -14 14 -17 125 -21 70 -2 136
-3 145 0 18 4 31 29 22 43 -6 10 -129 10 -229 0z"/>
<path d="M1364 4406 c-118 -23 -121 -33 -13 -40 52 -3 668 -8 1369 -11 701 -3
1592 -8 1980 -11 650 -5 999 1 1016 19 11 11 -27 35 -66 41 -19 3 -975 7
-2125 10 -1747 5 -2102 4 -2161 -8z"/>
<path d="M4073 4163 c-22 -38 -70 -126 -106 -198 -36 -71 -139 -268 -230 -437
l-164 -308 -301 453 c-278 418 -381 561 -396 546 -13 -12 70 -157 230 -401 93
-142 229 -350 302 -462 l132 -203 -85 -159 c-189 -350 -505 -1002 -505 -1042
0 -5 -47 -11 -105 -14 -109 -4 -151 -19 -104 -37 44 -16 211 -24 257 -12 40
11 60 41 27 41 -8 0 -15 3 -15 7 0 28 539 1101 570 1136 11 12 355 -553 538
-883 111 -201 109 -196 83 -205 -12 -3 -21 -11 -21 -16 0 -28 123 -38 206 -18
73 19 53 36 -50 41 -47 3 -48 4 -63 46 -30 91 -325 597 -582 999 l-71 113 71
142 c39 79 120 235 180 348 170 323 262 537 247 580 -2 6 -22 -20 -45 -57z"/>
</g>
</svg>
